<svg xmlns="http://www.w3.org/2000/svg" width="110" height="40" viewBox="0 0 110 40"><path d="M50.2 21.4V32h-1V6.7h6c2.9 0 5 .6 6.5 1.8 1.5 1.2 2.2 3.1 2.2 5.5 0 1.1-.2 2.1-.6 3s-1 1.7-1.8 2.3-1.7 1.2-2.8 1.5c-1.1.4-2.3.5-3.6.5h-4.9zm0-.8h5.1c1.2 0 2.3-.2 3.2-.5 1-.3 1.8-.8 2.4-1.4s1.2-1.3 1.5-2.1c.4-.8.5-1.7.5-2.6 0-2.1-.6-3.8-1.9-4.9s-3.2-1.7-5.8-1.7h-5.1v13.2zM74.3 14c1.3 0 2.4.2 3.4.7 1 .4 1.8 1.1 2.5 1.9.7.8 1.2 1.8 1.5 2.9.3 1.1.5 2.4.5 3.8s-.2 2.6-.5 3.8c-.3 1.1-.9 2.1-1.5 2.9s-1.5 1.4-2.5 1.8c-1 .4-2.1.6-3.4.6S72 32 71 31.6s-1.8-1-2.5-1.8-1.2-1.8-1.5-2.9c-.3-1.1-.5-2.4-.5-3.8s.2-2.6.5-3.8c.3-1.1.9-2.1 1.5-2.9.7-.8 1.5-1.4 2.5-1.9 1-.3 2.1-.5 3.3-.5zm0 17.5c1.2 0 2.2-.2 3-.6.9-.4 1.6-1 2.2-1.7.6-.7 1-1.6 1.3-2.6.3-1 .4-2.2.4-3.4s-.1-2.4-.4-3.4c-.3-1-.7-1.9-1.3-2.7s-1.3-1.3-2.2-1.7c-.9-.4-1.9-.6-3-.6s-2.2.2-3 .6c-.9.4-1.6 1-2.2 1.7-.6.7-1 1.6-1.3 2.7-.3 1-.4 2.2-.4 3.4s.1 2.4.4 3.4c.3 1 .7 1.9 1.3 2.6.6.7 1.3 1.3 2.2 1.7.9.4 1.9.6 3 .6zM88.6 6v26h-.9V6h.9zm10 32c-.1.1-.1.2-.2.3-.1.1-.2.1-.4.1h-.6l3.1-6.9-7.6-17.3h.7c.1 0 .2 0 .3.1l.2.2 6.6 15.2c.1.3.2.5.3.8.1-.3.2-.5.3-.8l6.6-15.2c0-.1.1-.2.2-.2.1-.1.2-.1.3-.1h.7L98.6 38z" fill="#4C5359"/><linearGradient id="a" gradientUnits="userSpaceOnUse" x1="1.039" y1="33.568" x2="36.464" y2="33.568"><stop offset="0" stop-color="#5fcf80"/><stop offset=".348" stop-color="#4fc1a1"/><stop offset=".771" stop-color="#3fb3c4"/><stop offset="1" stop-color="#39add1"/></linearGradient><path fill="url(#a)" d="M31.5 28.3l5 10.6H1"/><linearGradient id="b" gradientUnits="userSpaceOnUse" x1="1.039" y1="20" x2="26.359" y2="20"><stop offset="0" stop-color="#5fcf80"/><stop offset=".348" stop-color="#4fc1a1"/><stop offset=".771" stop-color="#3fb3c4"/><stop offset="1" stop-color="#39add1"/></linearGradient><path fill="url(#b)" d="M1 38.9L18.8 1.1l7.6 16.2"/></svg>