<?xml version="1.0" standalone="no"?>
<!DOCTYPE svg PUBLIC "-//W3C//DTD SVG 20010904//EN"
 "http://www.w3.org/TR/2001/REC-SVG-20010904/DTD/svg10.dtd">
<svg version="1.0" xmlns="http://www.w3.org/2000/svg"
 width="260.000000pt" height="260.000000pt" viewBox="0 0 260.000000 260.000000"
 preserveAspectRatio="xMidYMid meet">
<metadata>
Created by potrace 1.11, written by Peter Selinger 2001-2013
</metadata>
<g transform="translate(0.000000,260.000000) scale(0.100000,-0.100000)"
fill="#000000" stroke="none">
<path d="M1166 2550 c-290 -36 -547 -162 -751 -366 -148 -147 -250 -315 -313
-514 -43 -138 -56 -227 -56 -385 2 -337 120 -627 356 -871 191 -197 425 -322
692 -369 113 -19 316 -19 429 0 528 93 940 507 1032 1039 19 113 19 308 0 419
-78 450 -395 827 -823 981 -159 57 -407 86 -566 66z m315 -85 c373 -56 705
-292 877 -623 34 -65 92 -209 92 -229 0 -2 -20 -3 -44 -3 -43 0 -45 1 -58 42
l-14 42 -17 -43 c-17 -43 -18 -43 -62 -39 l-45 3 36 -30 35 -30 -15 -37 c-22
-51 -21 -52 21 -24 38 26 56 24 83 -8 21 -26 29 -18 19 16 -5 18 -9 38 -9 45
0 10 59 53 73 53 7 0 34 -159 42 -245 17 -205 -55 -486 -174 -681 -292 -474
-868 -683 -1393 -505 -502 170 -836 663 -805 1190 27 451 309 850 726 1026
202 86 417 113 632 80z"/>
<path d="M1290 2387 c0 -41 -3 -89 -6 -106 -6 -28 -4 -31 19 -31 25 0 26 3 29
58 l3 57 29 -58 c51 -105 76 -88 76 51 0 85 -1 92 -20 92 -16 0 -20 -7 -21
-37 -1 -74 -13 -79 -38 -19 -13 31 -27 56 -31 56 -5 0 -15 3 -24 6 -14 5 -16
-5 -16 -69z"/>
<path d="M1174 2403 c3 -27 8 -74 12 -106 6 -52 9 -58 28 -55 19 3 21 9 19 53
-1 28 -5 74 -8 103 -6 47 -9 52 -32 52 -24 0 -25 -2 -19 -47z"/>
<path d="M1030 2421 c-24 -7 -25 -9 -28 -114 -1 -59 -1 -107 2 -107 30 0 36
16 36 89 1 75 1 76 17 46 11 -20 12 -30 4 -33 -21 -7 -13 -42 10 -42 12 0 27
-7 34 -16 8 -11 19 -14 34 -9 21 6 21 8 -25 93 -26 48 -49 90 -53 93 -3 3 -17
3 -31 0z"/>
<path d="M1651 2345 c-11 -30 -23 -66 -27 -80 -5 -19 -11 -24 -24 -20 -12 4
-19 -1 -23 -15 -4 -15 1 -22 18 -26 45 -11 61 3 88 79 35 97 35 98 10 107 -20
8 -24 4 -42 -45z"/>
<path d="M853 2361 c-59 -24 -76 -42 -53 -56 5 -3 19 -1 30 5 15 8 20 8 21 -2
0 -7 15 -43 32 -80 29 -60 34 -65 54 -58 l22 9 -34 78 c-33 75 -33 78 -15 87
20 9 27 31 13 39 -5 2 -36 -8 -70 -22z"/>
<path d="M1767 2318 c-59 -97 -71 -140 -44 -167 8 -8 -2 -7 -28 4 -125 53
-238 75 -380 75 -267 0 -494 -98 -681 -292 -176 -183 -257 -390 -256 -653 0
-157 28 -277 91 -404 53 -106 89 -158 167 -241 118 -125 281 -220 451 -262
126 -32 342 -31 463 1 456 122 755 556 700 1017 -15 121 -49 235 -100 331
l-39 72 27 -5 c44 -8 57 8 62 83 5 61 7 68 27 68 29 0 38 12 23 30 -15 18 -66
20 -77 3 -4 -7 -10 -40 -13 -73 -4 -52 -8 -60 -26 -61 -12 -1 -28 -4 -35 -8
-8 -4 -7 -2 2 6 23 19 29 54 13 75 -13 17 -15 17 -29 -2 -10 -12 -14 -29 -10
-45 5 -20 0 -17 -31 20 -62 74 -124 129 -204 182 -90 59 -87 56 -55 51 14 -3
32 1 41 8 18 15 74 122 74 142 0 20 -37 50 -51 41 -7 -4 -10 -3 -6 3 4 6 0 14
-9 17 -30 12 -54 6 -67 -16z m79 -31 c6 -17 -54 -127 -71 -127 -24 0 -22 24 7
83 27 54 53 72 64 44z m-670 -202 c12 16 18 16 60 6 70 -18 144 -70 187 -133
l39 -56 79 -4 c101 -6 133 -26 137 -85 3 -35 -1 -44 -32 -71 -61 -54 -186 -66
-333 -33 -72 16 -88 17 -121 6 -52 -18 -150 -27 -192 -17 -23 5 -40 17 -50 35
-14 27 -14 29 18 58 24 22 32 35 26 47 -4 9 -6 22 -4 27 2 6 4 43 6 83 l2 72
48 44 48 43 34 -20 c33 -20 35 -20 48 -2z m902 -477 l-3 -23 -767 -3 -768 -2
0 25 0 25 771 0 770 0 -3 -22z m-1398 -83 c7 -9 15 -53 17 -99 l5 -83 -44 -7
c-50 -8 -92 4 -102 29 -12 33 -6 130 10 153 19 27 94 31 114 7z m176 0 c19
-12 21 -23 22 -99 1 -84 0 -86 -23 -86 -20 0 -24 6 -27 37 -2 27 -8 39 -20 41
-15 3 -18 -4 -18 -37 0 -37 -2 -41 -25 -41 -25 0 -25 0 -25 100 l0 99 48 0
c26 -1 57 -7 68 -14z m184 -5 c0 -16 -7 -20 -30 -20 -23 0 -30 -4 -30 -20 0
-16 7 -20 30 -20 23 0 30 -4 30 -20 0 -16 -7 -20 -30 -20 -25 0 -30 -4 -30
-25 0 -21 5 -25 30 -25 20 0 30 -5 30 -15 0 -12 -13 -15 -60 -15 l-60 0 0 93
c0 52 3 97 7 100 3 4 30 7 60 7 46 0 53 -2 53 -20z m160 -1 c0 -15 -7 -19 -35
-19 -30 0 -35 -3 -35 -23 0 -18 5 -22 33 -22 22 0 32 -5 32 -15 0 -10 -10 -15
-32 -15 -29 0 -33 -3 -33 -27 0 -25 3 -28 35 -28 24 0 35 -5 35 -15 0 -12 -13
-15 -60 -15 l-60 0 0 99 0 99 60 1 c53 0 60 -2 60 -20z m109 -36 l30 -58 1 58
c0 54 1 57 25 57 l25 0 0 -100 c0 -100 0 -100 -25 -100 -19 0 -30 10 -49 48
l-25 47 -1 -47 c0 -44 -2 -48 -25 -48 l-25 0 0 100 c0 93 1 100 20 100 14 0
28 -17 49 -57z m301 37 c0 -11 -4 -20 -10 -20 -6 0 -10 -26 -10 -59 0 -33 5
-63 10 -66 6 -3 10 -15 10 -26 0 -16 -4 -19 -22 -14 -13 4 -29 14 -35 23 -19
23 -17 133 3 160 19 28 54 30 54 2z m66 -5 c19 -29 13 -55 -13 -55 -17 0 -43
40 -43 67 0 22 39 14 56 -12z m181 -70 c28 -111 28 -105 -1 -105 -16 0 -27 7
-31 20 -4 11 -15 20 -27 20 -11 0 -22 -8 -25 -20 -4 -13 -14 -20 -30 -20 -18
0 -23 4 -19 18 3 9 10 37 16 62 32 129 28 121 62 118 31 -3 32 -5 55 -93z
m131 38 l31 -58 1 58 c0 54 1 57 25 57 l25 0 0 -100 c0 -100 0 -100 -25 -100
-20 0 -30 11 -54 58 l-30 57 -1 -57 c0 -51 -2 -58 -20 -58 -19 0 -20 7 -20
100 0 91 2 100 19 100 12 0 29 -19 49 -57z m-298 -93 c0 -23 -33 -60 -55 -60
-18 0 -19 17 -2 53 15 33 57 38 57 7z m-860 -115 c0 -14 -4 -25 -10 -25 -6 0
-10 -35 -10 -85 0 -50 4 -85 10 -85 6 0 10 -11 10 -24 0 -19 -4 -22 -24 -19
-41 8 -59 38 -64 103 -7 93 3 129 41 145 44 19 47 19 47 -10z m73 -3 c14 -12
17 -32 17 -107 0 -98 -8 -116 -57 -128 -19 -4 -23 -1 -23 18 0 13 5 27 10 30
6 3 10 39 10 80 0 41 -4 77 -10 80 -5 3 -10 17 -10 31 0 22 3 24 23 18 12 -3
30 -13 40 -22z m148 -25 c-14 -14 -15 -154 -1 -162 6 -3 10 -17 10 -29 0 -19
-4 -22 -25 -18 -43 8 -55 37 -55 133 0 91 10 112 55 121 23 4 34 -27 16 -45z
m94 20 c8 -12 15 -32 15 -44 0 -19 -5 -23 -30 -23 -23 0 -30 4 -30 20 0 11 -7
23 -15 26 -14 6 -21 35 -10 46 11 11 56 -5 70 -25z m-525 -102 l0 -125 -30 0
-30 0 0 125 0 125 30 0 30 0 0 -125z m660 83 c1 -40 2 -42 15 -24 14 18 18 13
60 -76 25 -52 45 -98 45 -102 0 -3 -14 -6 -31 -6 -27 0 -32 5 -51 50 -24 58
-38 56 -38 -6 0 -44 0 -44 -35 -44 l-35 0 0 125 0 125 35 0 c34 0 35 -1 35
-42z m94 2 c-30 -45 -40 -49 -49 -20 -12 38 3 60 41 60 l34 0 -26 -40z m224
18 c-2 -19 -10 -24 -40 -26 -33 -3 -38 -7 -38 -28 0 -21 5 -24 35 -24 28 0 35
-4 35 -20 0 -16 -7 -20 -35 -20 -32 0 -35 -2 -35 -29 0 -27 3 -30 38 -33 30
-2 38 -7 40 -25 3 -22 0 -23 -72 -23 l-76 0 0 125 0 125 76 0 c72 0 75 -1 72
-22z m112 -103 l0 -125 -30 0 -30 0 0 125 0 125 30 0 30 0 0 -125z m95 100
c28 -27 30 -40 12 -75 -10 -20 -11 -30 0 -50 7 -14 13 -42 13 -63 0 -37 -1
-38 -32 -35 -32 3 -33 5 -36 51 -3 39 -6 47 -23 47 -14 0 -19 7 -19 25 0 18 5
25 20 25 15 0 20 7 20 25 0 18 -5 25 -20 25 -15 0 -20 7 -20 25 0 21 5 25 30
25 19 0 40 -9 55 -25z m165 6 c0 -10 -7 -21 -15 -25 -26 -9 -17 -23 40 -63 82
-57 93 -122 23 -141 -29 -7 -33 -6 -36 12 -2 11 1 22 7 24 25 8 8 39 -38 70
-43 30 -71 66 -71 92 0 19 40 50 65 50 18 0 25 -5 25 -19z m68 3 c32 -22 29
-54 -4 -54 -29 0 -53 24 -54 53 0 21 28 22 58 1z m-880 -165 c4 -32 -25 -67
-58 -71 -29 -4 -42 30 -16 44 9 5 16 20 16 34 0 22 4 25 28 22 21 -2 28 -9 30
-29z m788 -15 c39 -42 30 -69 -17 -52 -30 10 -49 34 -49 62 0 25 40 19 66 -10z
m-1248 -31 c3 -20 -1 -23 -32 -23 -32 0 -36 3 -36 26 0 23 3 25 33 22 24 -2
33 -8 35 -25z m1387 -88 c0 -20 -8 -20 -767 -23 l-768 -2 0 25 0 25 768 -2
c759 -3 767 -3 767 -23z m-1119 -156 c8 -6 14 -15 14 -20 0 -12 -37 -11 -45 1
-9 14 -25 12 -25 -2 0 -7 16 -23 35 -36 54 -35 42 -82 -20 -82 -33 0 -55 15
-55 37 0 18 25 16 40 -2 9 -11 16 -13 24 -5 7 7 -1 19 -27 41 -40 33 -47 62
-19 78 20 12 58 7 78 -10z m385 11 c11 -6 19 -21 19 -35 0 -22 -5 -30 -47 -65
-16 -14 -15 -15 15 -18 20 -2 32 -9 32 -18 0 -10 -13 -14 -50 -14 -46 0 -50 2
-50 24 0 16 13 35 38 54 30 25 35 33 24 44 -11 11 -15 10 -23 -4 -11 -21 -39
-24 -39 -5 0 17 12 33 30 40 23 8 30 8 51 -3z m140 0 c15 -9 19 -22 19 -68 0
-64 -11 -82 -51 -82 -40 0 -59 24 -59 76 0 67 41 100 91 74z m233 -6 c24 -24
19 -43 -21 -80 l-37 -34 32 0 c22 0 32 -5 32 -15 0 -11 -12 -15 -50 -15 -44 0
-50 2 -50 21 0 11 16 35 35 52 34 30 46 57 25 57 -6 0 -13 -7 -16 -15 -7 -17
-30 -20 -39 -5 -8 13 31 50 54 50 11 0 27 -7 35 -16z m-886 -6 c-3 -7 -14 -14
-26 -16 -12 -2 -22 -7 -22 -12 0 -5 10 -10 22 -12 32 -5 35 -28 4 -28 -19 0
-26 -5 -26 -20 0 -15 7 -20 25 -20 16 0 25 -6 25 -15 0 -11 -12 -15 -45 -15
l-45 0 0 75 0 75 46 0 c32 0 44 -4 42 -12z m282 1 c0 -6 -9 -13 -20 -16 -17
-5 -20 -14 -20 -64 0 -52 -2 -59 -20 -59 -18 0 -20 7 -20 59 0 50 -3 59 -20
64 -43 11 -19 27 40 27 37 0 60 -4 60 -11z m480 -64 c0 -68 -2 -75 -20 -75
-18 0 -20 7 -20 54 0 34 -5 56 -12 60 -9 3 -7 9 6 20 38 31 46 21 46 -59z
m-450 -60 c0 -8 -7 -15 -15 -15 -8 0 -15 7 -15 15 0 8 7 15 15 15 8 0 15 -7
15 -15z"/>
<path d="M1057 2054 c-37 -34 -38 -39 -45 -120 -5 -48 -4 -91 1 -101 8 -12 3
-22 -22 -42 -66 -55 -29 -86 96 -79 72 4 92 9 151 41 155 85 211 109 270 114
119 11 176 -37 116 -98 -42 -42 -126 -55 -246 -40 -50 7 -92 10 -95 8 -2 -2
25 -10 59 -18 125 -28 260 -9 303 43 30 35 31 58 6 89 -17 21 -29 24 -108 27
l-89 4 -19 34 c-50 93 -222 199 -250 154 -9 -14 -42 -12 -68 4 -20 14 -25 12
-60 -20z m133 -34 c8 -8 16 -33 17 -55 1 -22 3 -71 5 -110 l3 -70 -59 -3 c-68
-4 -114 12 -126 42 -4 12 -6 58 -5 103 3 78 5 83 36 111 32 29 33 29 73 13 23
-9 48 -23 56 -31z m86 9 c7 -6 18 -8 23 -5 5 4 34 -17 64 -46 56 -55 86 -98
68 -98 -6 0 -17 12 -25 28 -8 15 -36 47 -62 72 l-47 45 46 -57 c73 -92 74 -94
28 -118 -22 -11 -42 -20 -45 -20 -2 0 -10 26 -16 58 -12 57 -49 134 -73 149
-6 4 -4 -4 5 -17 33 -46 51 -95 55 -152 5 -52 3 -57 -20 -73 -35 -22 -48 -12
-47 38 0 88 -13 182 -26 190 -8 4 -14 12 -14 17 0 12 69 3 86 -11z m-166 -259
c24 -4 63 -6 85 -3 l40 4 -30 -17 c-21 -13 -59 -19 -127 -22 -94 -4 -98 -3
-98 16 0 27 28 44 60 36 14 -4 45 -10 70 -14z"/>
<path d="M1073 2018 c-18 -19 -22 -37 -25 -105 -2 -55 1 -86 9 -94 7 -7 39
-15 72 -17 l58 -4 7 33 c3 19 1 50 -4 69 -6 19 -10 49 -10 66 0 58 -70 92
-107 52z"/>
<path d="M1429 1800 c-25 -5 -61 -16 -80 -25 -31 -16 -32 -19 -14 -26 54 -21
205 -2 205 26 0 25 -45 35 -111 25z"/>
<path d="M611 1501 c-8 -5 -11 -28 -9 -67 3 -51 6 -59 23 -59 13 0 21 8 23 23
2 15 -2 22 -12 22 -20 0 -21 29 -1 36 19 8 20 40 2 47 -8 3 -19 2 -26 -2z"/>
<path d="M790 1477 c0 -20 4 -24 20 -20 25 7 23 36 -3 41 -12 3 -17 -3 -17
-21z"/>
<path d="M1790 1435 c0 -14 5 -25 10 -25 6 0 10 11 10 25 0 14 -4 25 -10 25
-5 0 -10 -11 -10 -25z"/>
<path d="M1444 796 c-9 -22 0 -91 11 -89 14 4 19 103 5 103 -6 0 -13 -6 -16
-14z"/>
<path d="M678 2269 c-22 -13 -12 -42 13 -36 26 7 45 -18 29 -38 -10 -12 -10
-19 -2 -27 9 -9 18 -6 37 12 27 25 28 58 3 87 -12 15 -56 16 -80 2z"/>
<path d="M631 2236 c-14 -17 -9 -30 51 -118 38 -57 63 -72 74 -44 5 13 -94
175 -107 176 -4 0 -12 -6 -18 -14z"/>
<path d="M1913 2162 c-56 -69 -61 -78 -47 -92 14 -13 20 -10 55 29 43 49 44
48 25 -30 -13 -52 -12 -57 6 -68 11 -7 21 -11 22 -9 1 2 30 37 64 79 58 73 60
77 43 93 -17 15 -20 14 -55 -30 -40 -52 -41 -51 -24 30 9 48 9 59 -3 67 -8 5
-16 9 -19 9 -3 0 -33 -35 -67 -78z"/>
<path d="M500 2125 l-22 -23 53 -91 c50 -85 54 -90 71 -75 14 13 15 21 7 36
-15 28 10 54 37 40 14 -7 25 -6 39 4 23 17 22 18 -81 82 l-82 51 -22 -24z m89
-90 c-7 -7 -15 -3 -25 9 -22 30 -17 39 10 19 16 -12 21 -21 15 -28z"/>
<path d="M2133 2080 c-3 -11 -12 -20 -20 -20 -8 0 -11 -4 -8 -10 9 -15 51 -12
65 5 10 12 10 18 0 30 -17 21 -31 19 -37 -5z"/>
<path d="M375 1980 c-22 -24 -18 -30 29 -36 28 -3 38 0 46 16 8 15 6 21 -9 30
-29 15 -46 12 -66 -10z"/>
<path d="M346 1943 c-3 -4 -6 -19 -6 -34 0 -23 11 -37 55 -69 56 -42 94 -50
115 -25 14 17 4 39 -15 31 -17 -6 -115 60 -115 78 0 15 -24 28 -34 19z"/>
<path d="M2254 1938 c-21 -26 -22 -46 -4 -63 17 -16 19 -15 29 4 14 26 14 33
-2 55 -11 15 -15 15 -23 4z"/>
<path d="M492 1928 c-15 -15 -16 -38 -2 -38 6 0 15 -11 20 -25 11 -29 25 -32
34 -9 11 28 6 50 -12 67 -22 20 -25 20 -40 5z"/>
<path d="M275 1663 c-8 -45 -18 -53 -65 -53 l-35 0 37 -25 c35 -24 36 -26 27
-61 -6 -20 -8 -38 -6 -40 2 -3 18 6 34 20 l30 25 36 -25 c40 -27 42 -26 23 26
-13 34 -12 36 18 62 l31 27 -41 1 c-39 0 -43 2 -58 40 -9 22 -18 40 -20 40 -2
0 -7 -17 -11 -37z"/>
<path d="M213 1349 c2 -41 1 -42 -43 -57 l-45 -16 48 -14 47 -13 0 -47 0 -47
26 38 c17 25 31 36 42 33 9 -2 27 -7 40 -11 27 -8 28 -2 1 35 l-22 28 24 38
c21 35 21 37 3 30 -52 -20 -69 -18 -89 13 -27 41 -34 39 -32 -10z"/>
<path d="M2379 1355 c-18 -26 -29 -34 -44 -30 -11 3 -31 8 -45 12 -25 7 -25 6
-7 -18 30 -41 30 -48 3 -84 -29 -38 -26 -41 24 -23 32 11 35 10 62 -23 l28
-33 0 41 c0 40 2 43 40 54 22 7 40 15 40 19 0 4 -18 12 -41 19 l-41 12 7 45
c3 24 4 44 2 44 -2 0 -15 -16 -28 -35z"/>
<path d="M230 1077 c0 -2 6 -22 14 -44 l14 -39 -36 -25 -36 -24 46 -3 c44 -3
46 -5 52 -37 10 -49 21 -50 35 -5 12 39 13 40 58 40 l46 0 -29 22 c-16 12 -32
24 -37 28 -4 3 -1 25 7 48 l15 42 -39 -26 -39 -26 -35 27 c-20 15 -36 25 -36
22z"/>
<path d="M2240 1066 c0 -2 6 -21 14 -43 l14 -39 -36 -25 -36 -24 46 -3 c44 -3
46 -4 58 -45 l13 -42 13 30 c7 17 13 36 14 43 0 8 17 12 48 12 l47 1 -24 20
c-13 11 -30 23 -38 27 -11 7 -11 15 1 50 8 23 13 42 10 42 -3 0 -20 -11 -38
-25 l-33 -25 -33 25 c-34 25 -40 28 -40 21z"/>
<path d="M502 577 c-41 -41 -50 -55 -40 -65 9 -9 18 -6 41 16 l29 27 -18 -37
c-10 -21 -15 -40 -12 -44 4 -3 21 2 40 12 l33 17 -24 -27 c-19 -20 -22 -29
-13 -38 9 -9 23 -1 62 37 28 27 50 55 50 61 0 23 -32 24 -66 3 -39 -24 -41
-21 -15 22 16 25 17 35 8 50 -7 11 -14 19 -17 19 -3 0 -29 -24 -58 -53z"/>
<path d="M2028 583 c-14 -17 -12 -23 24 -81 33 -51 43 -60 54 -51 10 8 11 15
4 24 -13 16 4 30 34 30 39 0 25 24 -34 59 -34 20 -62 36 -64 36 -2 0 -10 -8
-18 -17z m62 -48 c7 -8 8 -15 2 -15 -5 0 -15 7 -22 15 -7 8 -8 15 -2 15 5 0
15 -7 22 -15z"/>
<path d="M1925 496 c-14 -14 -25 -32 -25 -40 0 -20 34 -38 68 -36 50 4 56 1
42 -14 -6 -8 -17 -13 -23 -11 -7 3 -19 0 -27 -5 -13 -9 -13 -11 0 -20 22 -14
34 -12 64 11 51 40 22 84 -48 72 -28 -4 -36 -2 -36 10 0 9 10 17 23 19 12 2
22 10 22 18 0 25 -33 23 -60 -4z"/>
<path d="M643 448 c-29 -22 -53 -44 -53 -49 0 -15 21 -21 34 -10 17 14 39 -9
31 -31 -4 -9 1 -18 10 -22 12 -4 20 4 31 29 7 19 20 50 28 69 10 25 11 37 3
45 -17 17 -29 13 -84 -31z m41 -23 c-4 -8 -11 -15 -16 -15 -6 0 -5 6 2 15 7 8
14 15 16 15 2 0 1 -7 -2 -15z"/>
<path d="M1851 441 c-13 -8 -11 -18 12 -59 15 -27 27 -55 27 -61 0 -25 -22 -8
-51 39 -31 50 -42 59 -54 40 -9 -15 47 -109 69 -116 23 -8 64 14 72 38 3 11
-7 40 -26 73 -17 30 -32 55 -33 55 -1 0 -9 -4 -16 -9z"/>
<path d="M753 380 c-18 -32 -33 -63 -33 -69 0 -16 65 -45 84 -38 9 4 26 27 38
52 25 52 20 69 -28 97 l-29 17 -32 -59z m70 4 c8 -8 -33 -84 -44 -84 -19 0
-19 23 1 55 22 35 31 41 43 29z"/>
<path d="M880 324 c-36 -84 -36 -90 5 -104 43 -14 59 -4 28 17 -28 19 -19 45
13 37 26 -7 34 13 9 22 -8 4 -15 15 -15 25 0 17 3 18 20 9 20 -11 40 -6 40 9
0 6 -57 31 -74 31 -3 0 -16 -21 -26 -46z"/>
<path d="M1628 339 l-26 -10 20 -62 c11 -34 24 -66 28 -71 12 -12 80 13 80 30
0 10 -8 12 -30 8 -23 -5 -30 -3 -30 9 0 9 9 18 19 22 29 9 15 33 -15 27 -30
-5 -34 23 -4 31 11 3 20 10 20 16 0 13 -25 13 -62 0z"/>
<path d="M1553 314 c-8 -4 -10 -16 -6 -35 7 -37 -22 -41 -31 -4 -4 14 -13 25
-21 25 -18 0 -18 -5 -3 -87 9 -49 15 -63 27 -61 11 2 16 15 16 37 0 44 21 52
30 12 5 -22 12 -31 27 -31 13 0 18 5 15 14 -3 8 -11 41 -18 75 -6 34 -14 61
-18 60 -3 0 -11 -3 -18 -5z"/>
<path d="M1077 303 c-10 -17 -28 -123 -22 -133 17 -28 33 3 51 103 5 30 3 37
-9 37 -9 0 -18 -3 -20 -7z"/>
<path d="M1136 254 c-10 -75 -8 -104 8 -104 10 0 16 13 19 38 l3 37 19 -42
c17 -42 42 -56 50 -30 2 6 6 40 10 75 5 52 3 62 -9 62 -11 0 -18 -14 -22 -42
l-7 -41 -17 44 c-24 61 -45 63 -54 3z"/>
<path d="M1350 275 c0 -8 9 -15 20 -15 17 0 20 -7 20 -44 0 -55 8 -76 27 -76
13 0 15 10 9 61 -5 55 -4 61 14 66 39 10 19 23 -35 23 -42 0 -55 -3 -55 -15z"/>
</g>
</svg>
